<svg width="680" height="620" viewBox="172 202 680 620" fill="none" xmlns="http://www.w3.org/2000/svg">
<path d="M335.1 323.641C399.195 258.178 503.139 237.112 592.277 241.787C609.449 242.687 616.905 245.763 623.443 249.583C629.886 253.348 635.212 257.672 648.428 261.277C661.871 264.943 673.93 269.374 688.064 278.493C702.179 287.599 718.332 301.359 740.007 323.643C750.987 334.932 759.708 352.605 766.823 372.864C773.946 393.146 779.496 416.132 784.078 438.138C788.655 460.12 792.286 481.234 795.534 497.627C797.162 505.844 798.694 512.884 800.207 518.306C800.964 521.018 801.711 523.306 802.454 525.125C803.205 526.962 803.924 528.249 804.598 529.016C810.965 536.267 819.485 549.828 824.616 565.856C829.748 581.885 831.528 600.504 824.229 617.777C823.265 620.058 821.438 622.545 818.924 625.196C816.401 627.856 813.139 630.729 809.247 633.776C801.464 639.87 791.097 646.709 778.929 653.993C754.589 668.562 722.955 684.96 690.154 700.795C624.569 732.458 554.195 761.93 527.986 770.072C475.514 786.372 396.661 794.197 286.818 757.712C235.688 740.729 213.329 724.591 204.578 709.524C195.784 694.382 200.886 680.521 203.673 668.972C205.131 662.929 208.959 656.302 213.874 649.725C218.802 643.131 224.883 636.508 230.937 630.469C236.993 624.428 243.037 618.955 247.898 614.662C252.793 610.339 256.419 607.27 257.736 605.958C260.303 603.4 262.927 599.239 264.91 594.278C266.889 589.326 268.201 583.645 268.201 578.077V493.939C268.201 456.151 273.599 386.455 335.1 323.641Z" fill="#2563EB" stroke="white" stroke-width="2"/>
<path d="M432.613 370.784C369.772 482.718 369.293 631.253 369.293 649.099C369.293 666.944 375.523 671.001 417.11 678.139C458.696 685.278 450.216 668.496 450.216 657.788C450.216 647.08 446.635 511.531 495.455 393.75C544.275 275.968 599.521 264.674 606.818 262.242C614.114 259.809 622.835 248.377 577.632 246.592C532.428 244.807 495.455 258.849 432.613 370.784Z" fill="white"/>
<rect x="341.713" y="364.392" width="29.1859" height="29.1859" fill="white"/>
<rect x="331.985" y="417.899" width="34.0502" height="34.0502" fill="white"/>
<rect x="696.808" y="402.685" width="48.6431" height="48.6431" fill="white"/>
<rect x="696.808" y="480.513" width="34.0502" height="34.0502" fill="white"/>
<rect x="283.342" y="319.991" width="68.1003" height="68.1003" fill="white"/>
<rect x="297.935" y="334.584" width="38.9145" height="38.9145" fill="#2563EB"/>
<rect x="244.427" y="373.499" width="72.9646" height="72.9646" fill="white"/>
<rect x="259.02" y="388.714" width="43.7788" height="43.7788" fill="#2563EB"/>
<rect x="735.722" y="358.906" width="72.9646" height="72.9646" fill="white"/>
<rect x="750.315" y="374.121" width="43.7788" height="43.7788" fill="#2563EB"/>
<rect x="307.663" y="471.407" width="38.9145" height="38.9145" fill="white"/>
<rect x="672.486" y="441.599" width="43.7788" height="43.7788" fill="white"/>
<rect x="259.02" y="446.463" width="24.3216" height="38.9145" fill="white"/>
<rect x="239.563" y="481.136" width="48.6431" height="48.6431" fill="white"/>
<rect x="249.292" y="490.864" width="29.1859" height="29.1859" fill="#2563EB"/>
<rect x="764.908" y="427.006" width="48.6431" height="48.6431" fill="white"/>
<rect x="774.637" y="436.734" width="29.1859" height="29.1859" fill="#2563EB"/>
</svg>
